<?xml version="1.0" encoding="utf-8"?>
<!-- Svg Vector Icons : http://www.onlinewebfonts.com/icon -->
<!DOCTYPE svg PUBLIC "-//W3C//DTD SVG 1.1//EN" "http://www.w3.org/Graphics/SVG/1.1/DTD/svg11.dtd">
<svg version="1.1" xmlns="http://www.w3.org/2000/svg" xmlns:xlink="http://www.w3.org/1999/xlink" x="0px" y="0px" viewBox="0 0 1000 1000" enable-background="new 0 0 1000 1000" xml:space="preserve">
<metadata> Svg Vector Icons : http://www.onlinewebfonts.com/icon </metadata>
<g><g transform="translate(0.000000,511.000000) scale(0.100000,-0.100000)"><path d="M1434.5,4239.3c-67-89.3-191.9-261.1-279-379.4l-160.7-218.7h3997.3h3995l-40.2,51.3c-22.3,26.8-165.1,198.6-316.9,379.4l-279,328.1H4951.9H1552.8L1434.5,4239.3z"/><path d="M1084.1,3290.7c-439.7-73.6-816.9-412.9-946.3-854.8c-53.6-176.3-49.1-486.5,6.7-671.8c113.8-366,412.9-660.6,805.7-792.3c274.5-89.3,691.9-35.7,944.1,125c58,35.7,111.6,67,116.1,67c6.7,0,13.4-1026.7,15.6-2281l6.7-2283.2l337-167.4c183-91.5,397.3-189.7,473.1-216.5l138.4-49.1v3066.6V2302h200.9h200.9V-831.6v-3131.3l129.4-35.7c149.5-42.4,589.2-127.2,653.9-127.2c42.4,0,42.4,42.4,42.4,3202.7v3202.7h189.7h189.7V-943.2v-3220.6l200.9-11.2c111.6-6.7,292.4-6.7,401.7,0l200.9,11.2v3220.6v3222.8h200.9h200.9V-923.1c0-2546.6,6.7-3202.7,29-3202.7c55.8,0,412.9,67,602.6,113.8l194.2,46.9v3133.5V2302h189.7h189.7V-769.1v-3068.8l51.3,15.6c111.6,35.7,531.2,221,714.2,316.9l194.2,102.7v2294.4v2296.6l64.7-46.9c133.9-93.7,352.6-178.5,531.2-205.3c357.1-51.3,720.9,73.7,988.7,339.2c229.9,227.7,354.9,520,357.1,828c2.2,553.5-383.9,1042.3-917.3,1169.5c-125,29-633.9,33.5-3992.8,29C2871.8,3301.9,1115.3,3295.2,1084.1,3290.7z M1566.2,2647.9c129.4-80.4,241-252.2,265.6-401.7c46.9-316.9-234.3-636.1-560.2-636.1c-359.3,0-624.9,330.3-546.8,680.7c35.7,162.9,138.4,294.6,292.4,374.9c109.4,55.8,140.6,62.5,281.2,55.8C1427.8,2714.9,1476.9,2701.5,1566.2,2647.9z M8951.4,2683.6c272.3-122.7,401.7-453.1,290.1-734.3c-51.3-125-225.4-279-357.1-316.9c-140.6-40.2-325.8-15.6-446.4,55.8c-386.1,225.4-361.6,796.8,44.6,984.3C8623.3,2739.4,8822,2743.9,8951.4,2683.6z"/></g></g>
</svg>