<?xml version="1.0" encoding="utf-8"?>
<!-- Svg Vector Icons : http://www.onlinewebfonts.com/icon -->
<!DOCTYPE svg PUBLIC "-//W3C//DTD SVG 1.1//EN" "http://www.w3.org/Graphics/SVG/1.1/DTD/svg11.dtd">
<svg version="1.1" xmlns="http://www.w3.org/2000/svg" xmlns:xlink="http://www.w3.org/1999/xlink" x="0px" y="0px" viewBox="0 0 1000 1000" enable-background="new 0 0 1000 1000" xml:space="preserve">
<metadata> Svg Vector Icons : http://www.onlinewebfonts.com/icon </metadata>
<g><g transform="translate(0.000000,511.000000) scale(0.100000,-0.100000)"><path d="M4588,4782c-188-126-362-254-386-284c-40-52-42-72-42-552v-500l68-68c54-54,84-68,142-68h76l-14-374c-14-400-60-1040-94-1336c-34-294-98-778-110-814c-10-34,36-36,772-36s782,2,772,36c-16,52-88,598-122,924c-40,392-66,776-82,1226l-14,374h86c68,0,96,12,152,68l68,68v498c0,422-4,504-32,542c-18,26-192,154-390,284c-298,200-370,240-432,240C4942,5010,4872,4972,4588,4782z"/><path d="M4150,306c-4-14-42-178-80-366c-40-186-104-464-144-614l-72-274l-636-6l-638-6l-64-66l-66-64l-6-456c-8-494,4-576,90-642c48-40,78-42,448-42c220,0,398-8,398-16c0-30-342-714-454-902c-258-444-518-790-840-1126c-200-210-206-218-206-306c0-76,10-104,58-152l58-58h804h804l58,58c58,58,58,60,58,306c0,486,56,734,224,992c96,146,278,322,422,404c300,174,704,218,1028,112c334-108,602-344,756-662c112-234,130-328,130-702c0-334,18-416,102-476c42-28,138-32,834-32h788l58,58c48,48,58,76,58,150c0,88-6,98-190,288c-320,332-586,686-848,1132c-110,188-426,810-450,888l-14,44h412h414l58,58l58,58v512v512l-58,64l-58,66l-650,6l-648,6l-74,284c-42,156-108,442-148,634l-76,350l-844,6C4338,330,4158,326,4150,306z"/></g></g>
</svg>