<?xml version="1.0" encoding="utf-8"?>
<!-- Svg Vector Icons : http://www.onlinewebfonts.com/icon -->
<!DOCTYPE svg PUBLIC "-//W3C//DTD SVG 1.1//EN" "http://www.w3.org/Graphics/SVG/1.1/DTD/svg11.dtd">
<svg version="1.1" xmlns="http://www.w3.org/2000/svg" xmlns:xlink="http://www.w3.org/1999/xlink" x="0px" y="0px" viewBox="0 0 1000 1000" enable-background="new 0 0 1000 1000" xml:space="preserve">
<metadata> Svg Vector Icons : http://www.onlinewebfonts.com/icon </metadata>
<g><g><path d="M403.4,706.4h192.8V517.5L417.1,642.6c-4.1,2.9-8.8,4.7-13.7,5.5V706.4L403.4,706.4z"/><path d="M122,196.9c0,15.1,12.3,27.4,27.4,27.4h67L202.7,194c-3.5-7.8-3.9-16.5-0.8-24.3h-52.5C134.3,169.5,122,181.7,122,196.9z"/><path d="M850.4,169.5h-52.3c2.9,7.8,2.7,16.5-0.8,24.3L783.6,224h67c15.1,0,27.4-12.3,27.4-27.4C877.6,181.7,865.3,169.5,850.4,169.5z"/><path d="M604.8,485.8c2.4-1.6,4.1-4.5,4.5-7.4l20-143.8c0.8-5.3,5.3-9.4,10.8-9.4h67c4.3,0,8.2-2.4,10-6.3l43.1-94.8l17.8-39c3.3-7.1-2-15.3-10-15.3H565.8v-0.2l-6.9-105c0-30.2-24.5-54.7-54.7-54.7h-8.8c-30.2,0-54.7,24.5-54.7,54.7l-6.7,104.8v0.2H231.7c-8,0-13.3,8.2-10,15.3l17.8,39l43.1,94.8c1.8,3.9,5.7,6.3,10,6.3h61.9c5.7,0,10.4,4.3,10.8,10l22.7,282c0.4,5.9,5.5,10,10.8,10c1.6,0,3.1-0.4,4.7-1c0.6-0.2,1-0.6,1.6-0.8l191.1-133.8L604.8,485.8z"/><path d="M527,990V823.4c0-5.9,4.7-10.6,10.6-10.6s10.6,4.7,10.6,10.6V990h54.3V823.4c0-5.9,4.7-10.6,10.6-10.6c5.9,0,10.6,4.7,10.6,10.6V990h47.2V795.6l-74.5-68.2h-193l-74.5,68.2V990h47.4V823.4c0-5.9,4.7-10.6,10.6-10.6c5.9,0,10.6,4.7,10.6,10.6V990h54.3V823.4c0-5.9,4.7-10.6,10.6-10.6c5.9,0,10.6,4.7,10.6,10.6V990H527L527,990z"/></g><g></g><g></g><g></g><g></g><g></g><g></g><g></g><g></g><g></g><g></g><g></g><g></g><g></g><g></g><g></g></g>
</svg>