<?xml version="1.0" encoding="utf-8"?>
<!-- Svg Vector Icons : http://www.onlinewebfonts.com/icon -->
<!DOCTYPE svg PUBLIC "-//W3C//DTD SVG 1.1//EN" "http://www.w3.org/Graphics/SVG/1.1/DTD/svg11.dtd">
<svg version="1.1" xmlns="http://www.w3.org/2000/svg" xmlns:xlink="http://www.w3.org/1999/xlink" x="0px" y="0px" viewBox="0 0 1000 1000" enable-background="new 0 0 1000 1000" xml:space="preserve">
<metadata> Svg Vector Icons : http://www.onlinewebfonts.com/icon </metadata>
<g><g><path d="M971.8,733.8l-7.3-231.9l-3.7-81.6c0.5-2.5,1.2-7.6-1-12.4c-2.6-5.4-8.5-9-12.4-11.1c-0.8-15.8-2.1-27.2-3.8-27.2c-1.7,0-3.1,11.2-3.7,27c-4,2-10,5.8-12.7,11.3c-2.3,4.9-1.4,9.9-0.9,12.4l-11,313.6h-58.5l-7.5-234.6c0,0,0.2-9-1.5-12.5c-1.7-3.7-5.1-6-8.1-7.6c-0.5-18.5-2-32.7-3.8-32.7c-1.9,0-3.4,13.8-3.9,32.1c-3.1,1.5-7.2,4.1-9.2,8.2c-1.5,3.5-1.5,12.5-1.5,12.5l-7.3,234.5h-50.8V565.8l-4.4-0.5v-31.9h-31.5v28.5l-29.9-0.2h-3.5v-48.8h-10.3c-0.1-4-1.2-12.3-8.6-21.5c-7-8.6-17.9-15-24.4-18.2c-0.3-21.3-2.4-38.2-5.1-38.2c-2.6,0-4.7,16.7-5.1,37.9c-6.4,3-17.9,9.4-25.4,18.6c-1.5,1.8-2.8,3.9-3.8,5.5v-8.2h-13.6c4.9-4.4,49.4-47.8,42-94.8c-7.3-45.9-52.2-74.2-87.8-99.5c-24.6-17.3-37.8-29.4-44.7-39h-1c0.3-5.1,0.5-10.8,0.5-16.7c0-21.1-2.5-38.1-5.3-42v-0.2c-0.5-0.4-0.8-1.4-1.2-1.4H500h-0.1c-0.2,0-0.6,1-1,1.4v0.2c-3.1,3.9-5.3,20.8-5.3,42c0,5.9,0.1,11.5,0.5,16.7H493c-6.8,9.6-20.1,21.7-44.8,39c-35.5,25.2-80.4,53.5-87.7,99.4c-7.5,47.1,37.1,90.4,42,94.8h-13.6v8.3c-1.1-1.6-2.2-3.7-3.8-5.5c-7.3-9.2-19.1-15.7-25.3-18.6c-0.2-21.2-2.5-37.9-5.1-37.9c-2.7,0-4.7,16.9-5.2,38.2c-6.5,3.4-17.4,9.8-24.3,18.4c-7.4,9.2-8.5,17.5-8.6,21.5h-10.4v48.3l-33.4,0.6v-28.5h-31.6v31.9l-4.3,0.5v167.9H186l-7.2-234.5c0,0,0-9-1.6-12.5c-2-4.1-6.2-6.7-9.2-8.2c-0.4-18.3-2-32.1-3.9-32.1c-1.9,0-3.4,14.2-3.8,32.7c-3,1.6-6.5,4-8.2,7.6c-1.7,3.6-1.6,12.5-1.6,12.5l-7.4,234.5H84.7l-11-313.6c0.5-2.5,1.3-7.6-1-12.4c-2.6-5.5-8.6-9.2-12.6-11.3c-0.6-15.8-2-27-3.7-27c-1.7,0-3.1,11.3-3.7,27.2c-4.1,2.1-10,5.6-12.6,11.1c-2.3,4.9-1.5,9.9-1,12.4L35.4,502l-7.3,231.9H10V805h980v-71.1L971.8,733.8L971.8,733.8z M539.5,732.9h-79.1v-83.7c0,0-0.4-22.5,18.7-35.5c8.2-5.5,14.5-8,20.8-8.1c6.3,0.1,12.7,2.6,20.9,8.1c19.1,13,18.6,35.5,18.6,35.5V732.9z"/></g><g></g><g></g><g></g><g></g><g></g><g></g><g></g><g></g><g></g><g></g><g></g><g></g><g></g><g></g><g></g></g>
</svg>